<svg width="178" height="26" viewBox="0 0 178 26" fill="none" xmlns="http://www.w3.org/2000/svg">
<path d="M7.904 16.728H3.248L2.448 19H0.544L4.528 7.864H6.64L10.624 19H8.704L7.904 16.728ZM7.392 15.24L5.584 10.072L3.76 15.24H7.392ZM14.1803 7.16V19H12.3563V7.16H14.1803ZM18.399 7.16V19H16.575V7.16H18.399ZM30.726 19L28.166 14.552H26.774V19H24.95V7.88H28.79C29.6433 7.88 30.3633 8.02933 30.95 8.328C31.5473 8.62667 31.99 9.02667 32.278 9.528C32.5767 10.0293 32.726 10.5893 32.726 11.208C32.726 11.9333 32.5127 12.5947 32.086 13.192C31.67 13.7787 31.0247 14.1787 30.15 14.392L32.902 19H30.726ZM26.774 13.096H28.79C29.4727 13.096 29.9847 12.9253 30.326 12.584C30.678 12.2427 30.854 11.784 30.854 11.208C30.854 10.632 30.6833 10.184 30.342 9.864C30.0007 9.53333 29.4833 9.368 28.79 9.368H26.774V13.096ZM43.1394 14.376C43.1394 14.7067 43.118 15.0053 43.0754 15.272H36.3394C36.3927 15.976 36.654 16.5413 37.1234 16.968C37.5927 17.3947 38.1687 17.608 38.8514 17.608C39.8327 17.608 40.526 17.1973 40.9314 16.376H42.8994C42.6327 17.1867 42.1474 17.8533 41.4434 18.376C40.75 18.888 39.886 19.144 38.8514 19.144C38.0087 19.144 37.2514 18.9573 36.5794 18.584C35.918 18.2 35.3954 17.6667 35.0114 16.984C34.638 16.2907 34.4514 15.4907 34.4514 14.584C34.4514 13.6773 34.6327 12.8827 34.9954 12.2C35.3687 11.5067 35.886 10.9733 36.5474 10.6C37.2194 10.2267 37.9874 10.04 38.8514 10.04C39.6834 10.04 40.4247 10.2213 41.0754 10.584C41.726 10.9467 42.2327 11.4587 42.5954 12.12C42.958 12.7707 43.1394 13.5227 43.1394 14.376ZM41.2354 13.8C41.2247 13.128 40.9847 12.5893 40.5154 12.184C40.046 11.7787 39.4647 11.576 38.7714 11.576C38.142 11.576 37.6034 11.7787 37.1554 12.184C36.7074 12.5787 36.4407 13.1173 36.3554 13.8H41.2354ZM44.3264 14.584C44.3264 13.6773 44.5077 12.8827 44.8704 12.2C45.2437 11.5067 45.7557 10.9733 46.4064 10.6C47.057 10.2267 47.8037 10.04 48.6464 10.04C49.713 10.04 50.593 10.296 51.2864 10.808C51.9904 11.3093 52.465 12.0293 52.7104 12.968H50.7424C50.5824 12.5307 50.3264 12.1893 49.9744 11.944C49.6224 11.6987 49.1797 11.576 48.6464 11.576C47.8997 11.576 47.3024 11.8427 46.8544 12.376C46.417 12.8987 46.1984 13.6347 46.1984 14.584C46.1984 15.5333 46.417 16.2747 46.8544 16.808C47.3024 17.3413 47.8997 17.608 48.6464 17.608C49.7024 17.608 50.401 17.144 50.7424 16.216H52.7104C52.4544 17.112 51.9744 17.8267 51.2704 18.36C50.5664 18.8827 49.6917 19.144 48.6464 19.144C47.8037 19.144 47.057 18.9573 46.4064 18.584C45.7557 18.2 45.2437 17.6667 44.8704 16.984C44.5077 16.2907 44.3264 15.4907 44.3264 14.584ZM55.4561 9.016C55.1255 9.016 54.8481 8.904 54.6241 8.68C54.4001 8.456 54.2881 8.17867 54.2881 7.848C54.2881 7.51733 54.4001 7.24 54.6241 7.016C54.8481 6.792 55.1255 6.68 55.4561 6.68C55.7761 6.68 56.0481 6.792 56.2721 7.016C56.4961 7.24 56.6081 7.51733 56.6081 7.848C56.6081 8.17867 56.4961 8.456 56.2721 8.68C56.0481 8.904 55.7761 9.016 55.4561 9.016ZM56.3521 10.184V19H54.5281V10.184H56.3521ZM60.5709 11.48C60.8802 11.0747 61.3015 10.7333 61.8349 10.456C62.3682 10.1787 62.9709 10.04 63.6429 10.04C64.4109 10.04 65.1095 10.232 65.7389 10.616C66.3789 10.9893 66.8802 11.5173 67.2429 12.2C67.6055 12.8827 67.7869 13.6667 67.7869 14.552C67.7869 15.4373 67.6055 16.232 67.2429 16.936C66.8802 17.6293 66.3789 18.1733 65.7389 18.568C65.1095 18.952 64.4109 19.144 63.6429 19.144C62.9709 19.144 62.3735 19.0107 61.8509 18.744C61.3282 18.4667 60.9015 18.1253 60.5709 17.72V23.192H58.7469V10.184H60.5709V11.48ZM65.9309 14.552C65.9309 13.944 65.8029 13.4213 65.5469 12.984C65.3015 12.536 64.9709 12.2 64.5549 11.976C64.1495 11.7413 63.7122 11.624 63.2429 11.624C62.7842 11.624 62.3469 11.7413 61.9309 11.976C61.5255 12.2107 61.1949 12.552 60.9389 13C60.6935 13.448 60.5709 13.976 60.5709 14.584C60.5709 15.192 60.6935 15.7253 60.9389 16.184C61.1949 16.632 61.5255 16.9733 61.9309 17.208C62.3469 17.4427 62.7842 17.56 63.2429 17.56C63.7122 17.56 64.1495 17.4427 64.5549 17.208C64.9709 16.9627 65.3015 16.6107 65.5469 16.152C65.8029 15.6933 65.9309 15.16 65.9309 14.552ZM77.6706 14.376C77.6706 14.7067 77.6493 15.0053 77.6066 15.272H70.8706C70.924 15.976 71.1853 16.5413 71.6546 16.968C72.124 17.3947 72.7 17.608 73.3826 17.608C74.364 17.608 75.0573 17.1973 75.4626 16.376H77.4306C77.164 17.1867 76.6786 17.8533 75.9746 18.376C75.2813 18.888 74.4173 19.144 73.3826 19.144C72.54 19.144 71.7826 18.9573 71.1106 18.584C70.4493 18.2 69.9266 17.6667 69.5426 16.984C69.1693 16.2907 68.9826 15.4907 68.9826 14.584C68.9826 13.6773 69.164 12.8827 69.5266 12.2C69.9 11.5067 70.4173 10.9733 71.0786 10.6C71.7506 10.2267 72.5186 10.04 73.3826 10.04C74.2146 10.04 74.956 10.2213 75.6066 10.584C76.2573 10.9467 76.764 11.4587 77.1266 12.12C77.4893 12.7707 77.6706 13.5227 77.6706 14.376ZM75.7666 13.8C75.756 13.128 75.516 12.5893 75.0466 12.184C74.5773 11.7787 73.996 11.576 73.3026 11.576C72.6733 11.576 72.1346 11.7787 71.6866 12.184C71.2386 12.5787 70.972 13.1173 70.8866 13.8H75.7666ZM82.6656 19.144C81.9723 19.144 81.3483 19.0213 80.7936 18.776C80.2496 18.52 79.8176 18.1787 79.4976 17.752C79.1776 17.3147 79.007 16.8293 78.9856 16.296H80.8736C80.9056 16.6693 81.0816 16.984 81.4016 17.24C81.7323 17.4853 82.143 17.608 82.6336 17.608C83.1456 17.608 83.5403 17.512 83.8176 17.32C84.1056 17.1173 84.2496 16.8613 84.2496 16.552C84.2496 16.2213 84.0896 15.976 83.7696 15.816C83.4603 15.656 82.9643 15.48 82.2816 15.288C81.6203 15.1067 81.0816 14.9307 80.6656 14.76C80.2496 14.5893 79.887 14.328 79.5776 13.976C79.279 13.624 79.1296 13.16 79.1296 12.584C79.1296 12.1147 79.2683 11.688 79.5456 11.304C79.823 10.9093 80.2176 10.6 80.7296 10.376C81.2523 10.152 81.8496 10.04 82.5216 10.04C83.5243 10.04 84.3296 10.296 84.9376 10.808C85.5563 11.3093 85.887 11.9973 85.9296 12.872H84.1056C84.0736 12.4773 83.9136 12.1627 83.6256 11.928C83.3376 11.6933 82.9483 11.576 82.4576 11.576C81.9776 11.576 81.6096 11.6667 81.3536 11.848C81.0976 12.0293 80.9696 12.2693 80.9696 12.568C80.9696 12.8027 81.055 13 81.2256 13.16C81.3963 13.32 81.6043 13.448 81.8496 13.544C82.095 13.6293 82.4576 13.7413 82.9376 13.88C83.5776 14.0507 84.1003 14.2267 84.5056 14.408C84.9216 14.5787 85.279 14.8347 85.5776 15.176C85.8763 15.5173 86.031 15.9707 86.0416 16.536C86.0416 17.0373 85.903 17.4853 85.6256 17.88C85.3483 18.2747 84.9536 18.584 84.4416 18.808C83.9403 19.032 83.3483 19.144 82.6656 19.144Z" fill="white"/>
<path d="M166.27 13L160.907 7.63749L162.439 6.10565L169.333 13L162.439 19.8943L160.907 18.3625L166.27 13Z" fill="white"/>
</svg>
