<svg width="192" height="26" viewBox="0 0 192 26" fill="none" xmlns="http://www.w3.org/2000/svg">
<path d="M10.3359 19H8.51188L3.02388 10.696V19H1.19988V7.864H3.02388L8.51188 16.152V7.864H10.3359V19ZM16.5551 19.144C15.7231 19.144 14.9711 18.9573 14.2991 18.584C13.6271 18.2 13.0991 17.6667 12.7151 16.984C12.3311 16.2907 12.1391 15.4907 12.1391 14.584C12.1391 13.688 12.3365 12.8933 12.7311 12.2C13.1258 11.5067 13.6645 10.9733 14.3471 10.6C15.0298 10.2267 15.7925 10.04 16.6351 10.04C17.4778 10.04 18.2405 10.2267 18.9231 10.6C19.6058 10.9733 20.1445 11.5067 20.5391 12.2C20.9338 12.8933 21.1311 13.688 21.1311 14.584C21.1311 15.48 20.9285 16.2747 20.5231 16.968C20.1178 17.6613 19.5631 18.2 18.8591 18.584C18.1658 18.9573 17.3978 19.144 16.5551 19.144ZM16.5551 17.56C17.0245 17.56 17.4618 17.448 17.8671 17.224C18.2831 17 18.6191 16.664 18.8751 16.216C19.1311 15.768 19.2591 15.224 19.2591 14.584C19.2591 13.944 19.1365 13.4053 18.8911 12.968C18.6458 12.52 18.3205 12.184 17.9151 11.96C17.5098 11.736 17.0725 11.624 16.6031 11.624C16.1338 11.624 15.6965 11.736 15.2911 11.96C14.8965 12.184 14.5818 12.52 14.3471 12.968C14.1125 13.4053 13.9951 13.944 13.9951 14.584C13.9951 15.5333 14.2351 16.2693 14.7151 16.792C15.2058 17.304 15.8191 17.56 16.5551 17.56ZM27.3823 10.04C28.0756 10.04 28.6943 10.184 29.2383 10.472C29.7929 10.76 30.2249 11.1867 30.5343 11.752C30.8436 12.3173 30.9983 13 30.9983 13.8V19H29.1903V14.072C29.1903 13.2827 28.9929 12.68 28.5983 12.264C28.2036 11.8373 27.6649 11.624 26.9823 11.624C26.2996 11.624 25.7556 11.8373 25.3503 12.264C24.9556 12.68 24.7583 13.2827 24.7583 14.072V19H22.9343V10.184H24.7583V11.192C25.0569 10.8293 25.4356 10.5467 25.8943 10.344C26.3636 10.1413 26.8596 10.04 27.3823 10.04ZM47.0651 7.88L42.8891 19H40.7771L36.5851 7.88H38.5371L41.8331 17.128L45.1451 7.88H47.0651ZM56.6705 14.376C56.6705 14.7067 56.6492 15.0053 56.6065 15.272H49.8705C49.9238 15.976 50.1852 16.5413 50.6545 16.968C51.1238 17.3947 51.6998 17.608 52.3825 17.608C53.3638 17.608 54.0572 17.1973 54.4625 16.376H56.4305C56.1638 17.1867 55.6785 17.8533 54.9745 18.376C54.2812 18.888 53.4172 19.144 52.3825 19.144C51.5398 19.144 50.7825 18.9573 50.1105 18.584C49.4492 18.2 48.9265 17.6667 48.5425 16.984C48.1692 16.2907 47.9825 15.4907 47.9825 14.584C47.9825 13.6773 48.1638 12.8827 48.5265 12.2C48.8998 11.5067 49.4172 10.9733 50.0785 10.6C50.7505 10.2267 51.5185 10.04 52.3825 10.04C53.2145 10.04 53.9558 10.2213 54.6065 10.584C55.2572 10.9467 55.7638 11.4587 56.1265 12.12C56.4892 12.7707 56.6705 13.5227 56.6705 14.376ZM54.7665 13.8C54.7558 13.128 54.5158 12.5893 54.0465 12.184C53.5772 11.7787 52.9958 11.576 52.3025 11.576C51.6732 11.576 51.1345 11.7787 50.6865 12.184C50.2385 12.5787 49.9718 13.1173 49.8865 13.8H54.7665ZM62.0175 10.04C62.7002 10.04 63.3028 10.1787 63.8255 10.456C64.3588 10.7227 64.7748 11.0587 65.0735 11.464V10.184H66.9135V19.144C66.9135 19.9547 66.7428 20.6747 66.4015 21.304C66.0602 21.944 65.5642 22.4453 64.9135 22.808C64.2735 23.1707 63.5055 23.352 62.6095 23.352C61.4148 23.352 60.4228 23.0693 59.6335 22.504C58.8442 21.9493 58.3962 21.192 58.2895 20.232H60.0975C60.2362 20.6907 60.5295 21.0587 60.9775 21.336C61.4362 21.624 61.9802 21.768 62.6095 21.768C63.3455 21.768 63.9375 21.544 64.3855 21.096C64.8442 20.648 65.0735 19.9973 65.0735 19.144V17.672C64.7642 18.088 64.3428 18.44 63.8095 18.728C63.2868 19.0053 62.6895 19.144 62.0175 19.144C61.2495 19.144 60.5455 18.952 59.9055 18.568C59.2762 18.1733 58.7748 17.6293 58.4015 16.936C58.0388 16.232 57.8575 15.4373 57.8575 14.552C57.8575 13.6667 58.0388 12.8827 58.4015 12.2C58.7748 11.5173 59.2762 10.9893 59.9055 10.616C60.5455 10.232 61.2495 10.04 62.0175 10.04ZM65.0735 14.584C65.0735 13.976 64.9455 13.448 64.6895 13C64.4442 12.552 64.1188 12.2107 63.7135 11.976C63.3082 11.7413 62.8708 11.624 62.4015 11.624C61.9322 11.624 61.4948 11.7413 61.0895 11.976C60.6842 12.2 60.3535 12.536 60.0975 12.984C59.8522 13.4213 59.7295 13.944 59.7295 14.552C59.7295 15.16 59.8522 15.6933 60.0975 16.152C60.3535 16.6107 60.6842 16.9627 61.0895 17.208C61.5055 17.4427 61.9428 17.56 62.4015 17.56C62.8708 17.56 63.3082 17.4427 63.7135 17.208C64.1188 16.9733 64.4442 16.632 64.6895 16.184C64.9455 15.7253 65.0735 15.192 65.0735 14.584ZM79.2415 19L76.6815 14.552H75.2895V19H73.4655V7.88H77.3055C78.1588 7.88 78.8788 8.02933 79.4655 8.328C80.0628 8.62667 80.5055 9.02667 80.7935 9.528C81.0922 10.0293 81.2415 10.5893 81.2415 11.208C81.2415 11.9333 81.0282 12.5947 80.6015 13.192C80.1855 13.7787 79.5402 14.1787 78.6655 14.392L81.4175 19H79.2415ZM75.2895 13.096H77.3055C77.9882 13.096 78.5002 12.9253 78.8415 12.584C79.1935 12.2427 79.3695 11.784 79.3695 11.208C79.3695 10.632 79.1988 10.184 78.8575 9.864C78.5162 9.53333 77.9988 9.368 77.3055 9.368H75.2895V13.096ZM91.6549 14.376C91.6549 14.7067 91.6335 15.0053 91.5909 15.272H84.8549C84.9082 15.976 85.1695 16.5413 85.6389 16.968C86.1082 17.3947 86.6842 17.608 87.3669 17.608C88.3482 17.608 89.0415 17.1973 89.4469 16.376H91.4149C91.1482 17.1867 90.6629 17.8533 89.9589 18.376C89.2655 18.888 88.4015 19.144 87.3669 19.144C86.5242 19.144 85.7669 18.9573 85.0949 18.584C84.4335 18.2 83.9109 17.6667 83.5269 16.984C83.1535 16.2907 82.9669 15.4907 82.9669 14.584C82.9669 13.6773 83.1482 12.8827 83.5109 12.2C83.8842 11.5067 84.4015 10.9733 85.0629 10.6C85.7349 10.2267 86.5029 10.04 87.3669 10.04C88.1989 10.04 88.9402 10.2213 89.5909 10.584C90.2415 10.9467 90.7482 11.4587 91.1109 12.12C91.4735 12.7707 91.6549 13.5227 91.6549 14.376ZM89.7509 13.8C89.7402 13.128 89.5002 12.5893 89.0309 12.184C88.5615 11.7787 87.9802 11.576 87.2869 11.576C86.6575 11.576 86.1189 11.7787 85.6709 12.184C85.2229 12.5787 84.9562 13.1173 84.8709 13.8H89.7509ZM92.8419 14.584C92.8419 13.6773 93.0232 12.8827 93.3859 12.2C93.7592 11.5067 94.2712 10.9733 94.9219 10.6C95.5725 10.2267 96.3192 10.04 97.1619 10.04C98.2285 10.04 99.1085 10.296 99.8019 10.808C100.506 11.3093 100.981 12.0293 101.226 12.968H99.2579C99.0979 12.5307 98.8419 12.1893 98.4899 11.944C98.1379 11.6987 97.6952 11.576 97.1619 11.576C96.4152 11.576 95.8179 11.8427 95.3699 12.376C94.9325 12.8987 94.7139 13.6347 94.7139 14.584C94.7139 15.5333 94.9325 16.2747 95.3699 16.808C95.8179 17.3413 96.4152 17.608 97.1619 17.608C98.2179 17.608 98.9165 17.144 99.2579 16.216H101.226C100.97 17.112 100.49 17.8267 99.7859 18.36C99.0819 18.8827 98.2072 19.144 97.1619 19.144C96.3192 19.144 95.5725 18.9573 94.9219 18.584C94.2712 18.2 93.7592 17.6667 93.3859 16.984C93.0232 16.2907 92.8419 15.4907 92.8419 14.584ZM103.972 9.016C103.641 9.016 103.364 8.904 103.14 8.68C102.916 8.456 102.804 8.17867 102.804 7.848C102.804 7.51733 102.916 7.24 103.14 7.016C103.364 6.792 103.641 6.68 103.972 6.68C104.292 6.68 104.564 6.792 104.788 7.016C105.012 7.24 105.124 7.51733 105.124 7.848C105.124 8.17867 105.012 8.456 104.788 8.68C104.564 8.904 104.292 9.016 103.972 9.016ZM104.868 10.184V19H103.044V10.184H104.868ZM109.086 11.48C109.396 11.0747 109.817 10.7333 110.35 10.456C110.884 10.1787 111.486 10.04 112.158 10.04C112.926 10.04 113.625 10.232 114.254 10.616C114.894 10.9893 115.396 11.5173 115.758 12.2C116.121 12.8827 116.302 13.6667 116.302 14.552C116.302 15.4373 116.121 16.232 115.758 16.936C115.396 17.6293 114.894 18.1733 114.254 18.568C113.625 18.952 112.926 19.144 112.158 19.144C111.486 19.144 110.889 19.0107 110.366 18.744C109.844 18.4667 109.417 18.1253 109.086 17.72V23.192H107.262V10.184H109.086V11.48ZM114.446 14.552C114.446 13.944 114.318 13.4213 114.062 12.984C113.817 12.536 113.486 12.2 113.07 11.976C112.665 11.7413 112.228 11.624 111.758 11.624C111.3 11.624 110.862 11.7413 110.446 11.976C110.041 12.2107 109.71 12.552 109.454 13C109.209 13.448 109.086 13.976 109.086 14.584C109.086 15.192 109.209 15.7253 109.454 16.184C109.71 16.632 110.041 16.9733 110.446 17.208C110.862 17.4427 111.3 17.56 111.758 17.56C112.228 17.56 112.665 17.4427 113.07 17.208C113.486 16.9627 113.817 16.6107 114.062 16.152C114.318 15.6933 114.446 15.16 114.446 14.552ZM126.186 14.376C126.186 14.7067 126.165 15.0053 126.122 15.272H119.386C119.439 15.976 119.701 16.5413 120.17 16.968C120.639 17.3947 121.215 17.608 121.898 17.608C122.879 17.608 123.573 17.1973 123.978 16.376H125.946C125.679 17.1867 125.194 17.8533 124.49 18.376C123.797 18.888 122.933 19.144 121.898 19.144C121.055 19.144 120.298 18.9573 119.626 18.584C118.965 18.2 118.442 17.6667 118.058 16.984C117.685 16.2907 117.498 15.4907 117.498 14.584C117.498 13.6773 117.679 12.8827 118.042 12.2C118.415 11.5067 118.933 10.9733 119.594 10.6C120.266 10.2267 121.034 10.04 121.898 10.04C122.73 10.04 123.471 10.2213 124.122 10.584C124.773 10.9467 125.279 11.4587 125.642 12.12C126.005 12.7707 126.186 13.5227 126.186 14.376ZM124.282 13.8C124.271 13.128 124.031 12.5893 123.562 12.184C123.093 11.7787 122.511 11.576 121.818 11.576C121.189 11.576 120.65 11.7787 120.202 12.184C119.754 12.5787 119.487 13.1173 119.402 13.8H124.282ZM131.181 19.144C130.488 19.144 129.864 19.0213 129.309 18.776C128.765 18.52 128.333 18.1787 128.013 17.752C127.693 17.3147 127.522 16.8293 127.501 16.296H129.389C129.421 16.6693 129.597 16.984 129.917 17.24C130.248 17.4853 130.658 17.608 131.149 17.608C131.661 17.608 132.056 17.512 132.333 17.32C132.621 17.1173 132.765 16.8613 132.765 16.552C132.765 16.2213 132.605 15.976 132.285 15.816C131.976 15.656 131.48 15.48 130.797 15.288C130.136 15.1067 129.597 14.9307 129.181 14.76C128.765 14.5893 128.402 14.328 128.093 13.976C127.794 13.624 127.645 13.16 127.645 12.584C127.645 12.1147 127.784 11.688 128.061 11.304C128.338 10.9093 128.733 10.6 129.245 10.376C129.768 10.152 130.365 10.04 131.037 10.04C132.04 10.04 132.845 10.296 133.453 10.808C134.072 11.3093 134.402 11.9973 134.445 12.872H132.621C132.589 12.4773 132.429 12.1627 132.141 11.928C131.853 11.6933 131.464 11.576 130.973 11.576C130.493 11.576 130.125 11.6667 129.869 11.848C129.613 12.0293 129.485 12.2693 129.485 12.568C129.485 12.8027 129.57 13 129.741 13.16C129.912 13.32 130.12 13.448 130.365 13.544C130.61 13.6293 130.973 13.7413 131.453 13.88C132.093 14.0507 132.616 14.2267 133.021 14.408C133.437 14.5787 133.794 14.8347 134.093 15.176C134.392 15.5173 134.546 15.9707 134.557 16.536C134.557 17.0373 134.418 17.4853 134.141 17.88C133.864 18.2747 133.469 18.584 132.957 18.808C132.456 19.032 131.864 19.144 131.181 19.144Z" fill="white"/>
<path d="M180.27 13L174.907 7.63749L176.439 6.10565L183.333 13L176.439 19.8943L174.907 18.3625L180.27 13Z" fill="white"/>
</svg>
