<svg width="183" height="26" viewBox="0 0 183 26" fill="none" xmlns="http://www.w3.org/2000/svg">
<path d="M10.7842 7.88L6.60824 19H4.49624L0.304244 7.88H2.25624L5.55224 17.128L8.86424 7.88H10.7842ZM20.3896 14.376C20.3896 14.7067 20.3683 15.0053 20.3256 15.272H13.5896C13.643 15.976 13.9043 16.5413 14.3736 16.968C14.843 17.3947 15.419 17.608 16.1016 17.608C17.083 17.608 17.7763 17.1973 18.1816 16.376H20.1496C19.883 17.1867 19.3976 17.8533 18.6936 18.376C18.0003 18.888 17.1363 19.144 16.1016 19.144C15.259 19.144 14.5016 18.9573 13.8296 18.584C13.1683 18.2 12.6456 17.6667 12.2616 16.984C11.8883 16.2907 11.7016 15.4907 11.7016 14.584C11.7016 13.6773 11.883 12.8827 12.2456 12.2C12.619 11.5067 13.1363 10.9733 13.7976 10.6C14.4696 10.2267 15.2376 10.04 16.1016 10.04C16.9336 10.04 17.675 10.2213 18.3256 10.584C18.9763 10.9467 19.483 11.4587 19.8456 12.12C20.2083 12.7707 20.3896 13.5227 20.3896 14.376ZM18.4856 13.8C18.475 13.128 18.235 12.5893 17.7656 12.184C17.2963 11.7787 16.715 11.576 16.0216 11.576C15.3923 11.576 14.8536 11.7787 14.4056 12.184C13.9576 12.5787 13.691 13.1173 13.6056 13.8H18.4856ZM25.7366 10.04C26.4193 10.04 27.022 10.1787 27.5446 10.456C28.078 10.7227 28.494 11.0587 28.7926 11.464V10.184H30.6326V19.144C30.6326 19.9547 30.462 20.6747 30.1206 21.304C29.7793 21.944 29.2833 22.4453 28.6326 22.808C27.9926 23.1707 27.2246 23.352 26.3286 23.352C25.134 23.352 24.142 23.0693 23.3526 22.504C22.5633 21.9493 22.1153 21.192 22.0086 20.232H23.8166C23.9553 20.6907 24.2486 21.0587 24.6966 21.336C25.1553 21.624 25.6993 21.768 26.3286 21.768C27.0646 21.768 27.6566 21.544 28.1046 21.096C28.5633 20.648 28.7926 19.9973 28.7926 19.144V17.672C28.4833 18.088 28.062 18.44 27.5286 18.728C27.006 19.0053 26.4086 19.144 25.7366 19.144C24.9686 19.144 24.2646 18.952 23.6246 18.568C22.9953 18.1733 22.494 17.6293 22.1206 16.936C21.758 16.232 21.5766 15.4373 21.5766 14.552C21.5766 13.6667 21.758 12.8827 22.1206 12.2C22.494 11.5173 22.9953 10.9893 23.6246 10.616C24.2646 10.232 24.9686 10.04 25.7366 10.04ZM28.7926 14.584C28.7926 13.976 28.6646 13.448 28.4086 13C28.1633 12.552 27.838 12.2107 27.4326 11.976C27.0273 11.7413 26.59 11.624 26.1206 11.624C25.6513 11.624 25.214 11.7413 24.8086 11.976C24.4033 12.2 24.0726 12.536 23.8166 12.984C23.5713 13.4213 23.4486 13.944 23.4486 14.552C23.4486 15.16 23.5713 15.6933 23.8166 16.152C24.0726 16.6107 24.4033 16.9627 24.8086 17.208C25.2246 17.4427 25.662 17.56 26.1206 17.56C26.59 17.56 27.0273 17.4427 27.4326 17.208C27.838 16.9733 28.1633 16.632 28.4086 16.184C28.6646 15.7253 28.7926 15.192 28.7926 14.584ZM42.9606 19L40.4006 14.552H39.0086V19H37.1846V7.88H41.0246C41.878 7.88 42.598 8.02933 43.1846 8.328C43.782 8.62667 44.2246 9.02667 44.5126 9.528C44.8113 10.0293 44.9606 10.5893 44.9606 11.208C44.9606 11.9333 44.7473 12.5947 44.3206 13.192C43.9046 13.7787 43.2593 14.1787 42.3846 14.392L45.1366 19H42.9606ZM39.0086 13.096H41.0246C41.7073 13.096 42.2193 12.9253 42.5606 12.584C42.9126 12.2427 43.0886 11.784 43.0886 11.208C43.0886 10.632 42.918 10.184 42.5766 9.864C42.2353 9.53333 41.718 9.368 41.0246 9.368H39.0086V13.096ZM55.374 14.376C55.374 14.7067 55.3527 15.0053 55.31 15.272H48.574C48.6273 15.976 48.8887 16.5413 49.358 16.968C49.8273 17.3947 50.4033 17.608 51.086 17.608C52.0673 17.608 52.7607 17.1973 53.166 16.376H55.134C54.8673 17.1867 54.382 17.8533 53.678 18.376C52.9847 18.888 52.1207 19.144 51.086 19.144C50.2433 19.144 49.486 18.9573 48.814 18.584C48.1527 18.2 47.63 17.6667 47.246 16.984C46.8727 16.2907 46.686 15.4907 46.686 14.584C46.686 13.6773 46.8673 12.8827 47.23 12.2C47.6033 11.5067 48.1207 10.9733 48.782 10.6C49.454 10.2267 50.222 10.04 51.086 10.04C51.918 10.04 52.6593 10.2213 53.31 10.584C53.9607 10.9467 54.4673 11.4587 54.83 12.12C55.1927 12.7707 55.374 13.5227 55.374 14.376ZM53.47 13.8C53.4593 13.128 53.2193 12.5893 52.75 12.184C52.2807 11.7787 51.6993 11.576 51.006 11.576C50.3767 11.576 49.838 11.7787 49.39 12.184C48.942 12.5787 48.6753 13.1173 48.59 13.8H53.47ZM56.561 14.584C56.561 13.6773 56.7423 12.8827 57.105 12.2C57.4783 11.5067 57.9903 10.9733 58.641 10.6C59.2917 10.2267 60.0383 10.04 60.881 10.04C61.9477 10.04 62.8277 10.296 63.521 10.808C64.225 11.3093 64.6997 12.0293 64.945 12.968H62.977C62.817 12.5307 62.561 12.1893 62.209 11.944C61.857 11.6987 61.4143 11.576 60.881 11.576C60.1343 11.576 59.537 11.8427 59.089 12.376C58.6517 12.8987 58.433 13.6347 58.433 14.584C58.433 15.5333 58.6517 16.2747 59.089 16.808C59.537 17.3413 60.1343 17.608 60.881 17.608C61.937 17.608 62.6357 17.144 62.977 16.216H64.945C64.689 17.112 64.209 17.8267 63.505 18.36C62.801 18.8827 61.9263 19.144 60.881 19.144C60.0383 19.144 59.2917 18.9573 58.641 18.584C57.9903 18.2 57.4783 17.6667 57.105 16.984C56.7423 16.2907 56.561 15.4907 56.561 14.584ZM67.6907 9.016C67.3601 9.016 67.0827 8.904 66.8587 8.68C66.6347 8.456 66.5227 8.17867 66.5227 7.848C66.5227 7.51733 66.6347 7.24 66.8587 7.016C67.0827 6.792 67.3601 6.68 67.6907 6.68C68.0107 6.68 68.2827 6.792 68.5067 7.016C68.7307 7.24 68.8427 7.51733 68.8427 7.848C68.8427 8.17867 68.7307 8.456 68.5067 8.68C68.2827 8.904 68.0107 9.016 67.6907 9.016ZM68.5867 10.184V19H66.7627V10.184H68.5867ZM72.8055 11.48C73.1148 11.0747 73.5362 10.7333 74.0695 10.456C74.6028 10.1787 75.2055 10.04 75.8775 10.04C76.6455 10.04 77.3442 10.232 77.9735 10.616C78.6135 10.9893 79.1148 11.5173 79.4775 12.2C79.8402 12.8827 80.0215 13.6667 80.0215 14.552C80.0215 15.4373 79.8402 16.232 79.4775 16.936C79.1148 17.6293 78.6135 18.1733 77.9735 18.568C77.3442 18.952 76.6455 19.144 75.8775 19.144C75.2055 19.144 74.6082 19.0107 74.0855 18.744C73.5628 18.4667 73.1362 18.1253 72.8055 17.72V23.192H70.9815V10.184H72.8055V11.48ZM78.1655 14.552C78.1655 13.944 78.0375 13.4213 77.7815 12.984C77.5362 12.536 77.2055 12.2 76.7895 11.976C76.3842 11.7413 75.9468 11.624 75.4775 11.624C75.0188 11.624 74.5815 11.7413 74.1655 11.976C73.7602 12.2107 73.4295 12.552 73.1735 13C72.9282 13.448 72.8055 13.976 72.8055 14.584C72.8055 15.192 72.9282 15.7253 73.1735 16.184C73.4295 16.632 73.7602 16.9733 74.1655 17.208C74.5815 17.4427 75.0188 17.56 75.4775 17.56C75.9468 17.56 76.3842 17.4427 76.7895 17.208C77.2055 16.9627 77.5362 16.6107 77.7815 16.152C78.0375 15.6933 78.1655 15.16 78.1655 14.552ZM89.9052 14.376C89.9052 14.7067 89.8839 15.0053 89.8412 15.272H83.1052C83.1586 15.976 83.4199 16.5413 83.8892 16.968C84.3586 17.3947 84.9346 17.608 85.6172 17.608C86.5986 17.608 87.2919 17.1973 87.6972 16.376H89.6652C89.3986 17.1867 88.9132 17.8533 88.2092 18.376C87.5159 18.888 86.6519 19.144 85.6172 19.144C84.7746 19.144 84.0172 18.9573 83.3452 18.584C82.6839 18.2 82.1612 17.6667 81.7772 16.984C81.4039 16.2907 81.2172 15.4907 81.2172 14.584C81.2172 13.6773 81.3986 12.8827 81.7612 12.2C82.1346 11.5067 82.6519 10.9733 83.3132 10.6C83.9852 10.2267 84.7532 10.04 85.6172 10.04C86.4492 10.04 87.1906 10.2213 87.8412 10.584C88.4919 10.9467 88.9986 11.4587 89.3612 12.12C89.7239 12.7707 89.9052 13.5227 89.9052 14.376ZM88.0012 13.8C87.9906 13.128 87.7506 12.5893 87.2812 12.184C86.8119 11.7787 86.2306 11.576 85.5372 11.576C84.9079 11.576 84.3692 11.7787 83.9212 12.184C83.4732 12.5787 83.2066 13.1173 83.1212 13.8H88.0012ZM94.9002 19.144C94.2069 19.144 93.5829 19.0213 93.0282 18.776C92.4842 18.52 92.0522 18.1787 91.7322 17.752C91.4122 17.3147 91.2416 16.8293 91.2202 16.296H93.1082C93.1402 16.6693 93.3162 16.984 93.6362 17.24C93.9669 17.4853 94.3776 17.608 94.8682 17.608C95.3802 17.608 95.7749 17.512 96.0522 17.32C96.3402 17.1173 96.4842 16.8613 96.4842 16.552C96.4842 16.2213 96.3242 15.976 96.0042 15.816C95.6949 15.656 95.1989 15.48 94.5162 15.288C93.8549 15.1067 93.3162 14.9307 92.9002 14.76C92.4842 14.5893 92.1216 14.328 91.8122 13.976C91.5136 13.624 91.3642 13.16 91.3642 12.584C91.3642 12.1147 91.5029 11.688 91.7802 11.304C92.0576 10.9093 92.4522 10.6 92.9642 10.376C93.4869 10.152 94.0842 10.04 94.7562 10.04C95.7589 10.04 96.5642 10.296 97.1722 10.808C97.7909 11.3093 98.1216 11.9973 98.1642 12.872H96.3402C96.3082 12.4773 96.1482 12.1627 95.8602 11.928C95.5722 11.6933 95.1829 11.576 94.6922 11.576C94.2122 11.576 93.8442 11.6667 93.5882 11.848C93.3322 12.0293 93.2042 12.2693 93.2042 12.568C93.2042 12.8027 93.2896 13 93.4602 13.16C93.6309 13.32 93.8389 13.448 94.0842 13.544C94.3296 13.6293 94.6922 13.7413 95.1722 13.88C95.8122 14.0507 96.3349 14.2267 96.7402 14.408C97.1562 14.5787 97.5136 14.8347 97.8122 15.176C98.1109 15.5173 98.2656 15.9707 98.2762 16.536C98.2762 17.0373 98.1376 17.4853 97.8602 17.88C97.5829 18.2747 97.1882 18.584 96.6762 18.808C96.1749 19.032 95.5829 19.144 94.9002 19.144ZM109.475 19.112C108.441 19.112 107.486 18.872 106.611 18.392C105.747 17.9013 105.059 17.224 104.547 16.36C104.046 15.4853 103.795 14.504 103.795 13.416C103.795 12.328 104.046 11.352 104.547 10.488C105.059 9.624 105.747 8.952 106.611 8.472C107.486 7.98133 108.441 7.736 109.475 7.736C110.521 7.736 111.475 7.98133 112.339 8.472C113.214 8.952 113.902 9.624 114.403 10.488C114.905 11.352 115.155 12.328 115.155 13.416C115.155 14.504 114.905 15.4853 114.403 16.36C113.902 17.224 113.214 17.9013 112.339 18.392C111.475 18.872 110.521 19.112 109.475 19.112ZM109.475 17.528C110.211 17.528 110.867 17.3627 111.443 17.032C112.019 16.6907 112.467 16.2107 112.787 15.592C113.118 14.9627 113.283 14.2373 113.283 13.416C113.283 12.5947 113.118 11.8747 112.787 11.256C112.467 10.6373 112.019 10.1627 111.443 9.832C110.867 9.50133 110.211 9.336 109.475 9.336C108.739 9.336 108.083 9.50133 107.507 9.832C106.931 10.1627 106.478 10.6373 106.147 11.256C105.827 11.8747 105.667 12.5947 105.667 13.416C105.667 14.2373 105.827 14.9627 106.147 15.592C106.478 16.2107 106.931 16.6907 107.507 17.032C108.083 17.3627 108.739 17.528 109.475 17.528ZM121.398 10.04C122.092 10.04 122.71 10.184 123.254 10.472C123.809 10.76 124.241 11.1867 124.55 11.752C124.86 12.3173 125.014 13 125.014 13.8V19H123.206V14.072C123.206 13.2827 123.009 12.68 122.614 12.264C122.22 11.8373 121.681 11.624 120.998 11.624C120.316 11.624 119.772 11.8373 119.366 12.264C118.972 12.68 118.774 13.2827 118.774 14.072V19H116.95V10.184H118.774V11.192C119.073 10.8293 119.452 10.5467 119.91 10.344C120.38 10.1413 120.876 10.04 121.398 10.04ZM129.165 7.16V19H127.341V7.16H129.165ZM139.496 10.184L134.088 23.144H132.2L133.992 18.856L130.52 10.184H132.552L135.032 16.904L137.608 10.184H139.496Z" fill="white"/>
<path d="M171.27 13L165.907 7.63749L167.439 6.10565L174.334 13L167.439 19.8943L165.907 18.3625L171.27 13Z" fill="white"/>
</svg>
